<?xml version="1.0" encoding="UTF-8" standalone="no"?>
<svg
   xmlns:dc="http://purl.org/dc/elements/1.1/"
   xmlns:cc="http://creativecommons.org/ns#"
   xmlns:rdf="http://www.w3.org/1999/02/22-rdf-syntax-ns#"
   xmlns:svg="http://www.w3.org/2000/svg"
   xmlns="http://www.w3.org/2000/svg"
   xmlns:sodipodi="http://sodipodi.sourceforge.net/DTD/sodipodi-0.dtd"
   xmlns:inkscape="http://www.inkscape.org/namespaces/inkscape"
   version="1.0"
   width="76.000000pt"
   height="76.000000pt"
   viewBox="0 0 76.000000 76.000000"
   preserveAspectRatio="xMidYMid meet"
   id="svg2997"
   inkscape:version="0.48.4 r9939"
   sodipodi:docname="football.svg">
  <defs
     id="defs3007" />
  <sodipodi:namedview
     pagecolor="#ffffff"
     bordercolor="#666666"
     borderopacity="1"
     objecttolerance="10"
     gridtolerance="10"
     guidetolerance="10"
     inkscape:pageopacity="0"
     inkscape:pageshadow="2"
     inkscape:window-width="1152"
     inkscape:window-height="802"
     id="namedview3005"
     showgrid="true"
     inkscape:zoom="2.5736842"
     inkscape:cx="42.353959"
     inkscape:cy="34.389627"
     inkscape:window-x="-8"
     inkscape:window-y="-8"
     inkscape:window-maximized="1"
     inkscape:current-layer="svg2997"
     showguides="true"
     inkscape:guide-bbox="true">
    <inkscape:grid
       type="xygrid"
       id="grid4350" />
  </sodipodi:namedview>
  <metadata
     id="metadata2999">
Created by potrace 1.10, written by Peter Selinger 2001-2011
<rdf:RDF>
  <cc:Work
     rdf:about="">
    <dc:format>image/svg+xml</dc:format>
    <dc:type
       rdf:resource="http://purl.org/dc/dcmitype/StillImage" />
    <dc:title></dc:title>
  </cc:Work>
</rdf:RDF>
</metadata>
  <text
     xml:space="preserve"
     style="font-size:56px;font-style:normal;font-weight:normal;line-height:125%;letter-spacing:0px;word-spacing:0px;fill:#000000;fill-opacity:1;stroke:none;font-family:Sans"
     x="47.985683"
     y="80.235176"
     id="text3039"
     sodipodi:linespacing="125%"
     transform="scale(0.8,0.8)"><tspan
       sodipodi:role="line"
       id="tspan3041" /></text>
  <text
     xml:space="preserve"
     style="font-size:56px;font-style:normal;font-weight:normal;line-height:125%;letter-spacing:0px;word-spacing:0px;fill:#000000;fill-opacity:1;stroke:none;font-family:Sans"
     x="28.558283"
     y="81.206543"
     id="text3051"
     sodipodi:linespacing="125%"
     transform="scale(0.8,0.8)"><tspan
       sodipodi:role="line"
       id="tspan3053" /></text>
  <path
     style="fill:#000000;fill-opacity:1"
     d=""
     id="path3227"
     inkscape:connector-curvature="0"
     transform="scale(0.8,0.8)" />
  <path
     style="fill:#000000;fill-opacity:1"
     d=""
     id="path3699"
     inkscape:connector-curvature="0"
     transform="scale(0.8,0.8)" />
  <path
     style="fill:#000000;fill-opacity:1"
     d=""
     id="path3701"
     inkscape:connector-curvature="0"
     transform="scale(0.8,0.8)" />
  <path
     style="opacity:0.71681417;fill:#ffffff;fill-opacity:1;fill-rule:nonzero;stroke:#000000;stroke-width:0.44999999;stroke-miterlimit:4;stroke-opacity:1;stroke-dasharray:none;stroke-dashoffset:0"
     d="M 44.15625 16.21875 C 43.594814 16.265691 42.371246 16.442698 40.96875 16.6875 C 33.941065 17.914161 28.161298 20.6688 22.875 25.3125 L 21.15625 26.8125 L 21.65625 28.65625 L 22.1875 30.46875 L 30.90625 30.375 L 37.4375 30.28125 C 38.639504 32.142945 39.659353 33.699192 40.8125 35.46875 C 39.529562 37.493621 36.51675 42.303545 34.40625 45.625 C 31.533727 45.90978 28.562016 46.201112 25.4375 46.53125 C 16.5866 35.963277 16.546413 35.955176 15.625 36.375 C 14.597578 36.843125 13.335276 40.986553 12.90625 45.28125 C 12.352223 50.827264 14.724449 59.614683 17.75 63.21875 C 18.068313 63.597927 18.491277 63.84666 18.6875 63.78125 C 18.883724 63.715842 20.933387 60.351215 23.25 56.3125 L 26.53125 50.59375 C 27.560604 50.484674 28.363643 50.401056 29.46875 50.28125 C 31.612368 50.048858 31.829719 50.057088 33.5625 49.875 C 34.279128 50.729006 35.619903 52.28749 38.15625 55.21875 L 41.875 59.5 L 40.96875 61.5 L 39.15625 65.5 L 33.625 67.40625 C 24.573982 70.531644 24.339187 70.743905 27.21875 72.84375 C 30.477974 75.220453 34.830856 77.056787 39.5625 78.0625 C 42.125114 78.607184 51.671516 78.704189 52.1875 78.1875 C 52.387726 77.986998 47.342997 71.421208 43.0625 66.28125 L 44.5 63.09375 L 45.34375 61.21875 L 45.53125 61.15625 C 46.465145 60.807109 50.205995 59.256343 53.84375 57.71875 L 58.0625 55.96875 L 59.4375 57.34375 L 62.09375 60 L 61.65625 64.65625 C 61.302414 68.389717 60.91099 72.174209 60.8125 73.0625 C 60.661784 74.421767 60.776592 74.758362 61.46875 75.09375 C 61.92108 75.312928 62.31085 75.48554 62.34375 75.5 C 62.376646 75.514463 63.466828 74.930455 64.78125 74.1875 C 70.543686 70.930379 75.416075 65.938832 78.0625 60.5625 C 79.886383 56.8572 80.202117 55.395742 79.40625 54.375 C 78.841484 53.650657 78.614598 53.689518 70.5625 55.75 L 64.8125 57.21875 L 62.1875 54.59375 L 60.3125 52.71875 L 59.90625 46.34375 C 59.715959 43.470309 59.618391 42.643818 59.5 41.0625 C 60.431096 40.036192 61.239092 39.156676 62.28125 38 C 63.92605 36.17446 64.170343 35.926786 65.4375 34.53125 L 67.0625 34.71875 C 69.133568 34.973201 72.501087 35.410855 74.53125 35.6875 C 76.561414 35.964145 78.339724 36.22433 78.5 36.25 C 78.943434 36.321005 78.86636 35.996665 77.96875 34.21875 C 75.045915 28.429431 69.713227 23.293462 63.28125 20.0625 C 61.478721 19.157039 59.96211 18.4754 59.90625 18.53125 C 59.790333 18.647168 61.22211 25.44349 62.46875 30.71875 L 62.65625 31.46875 C 60.958101 33.320148 59.287026 35.148755 57.4375 37.1875 C 54.520761 36.488502 48.736161 35.211848 45.0625 34.4375 C 44.086564 32.930347 43.078432 31.400669 41.875 29.5625 C 41.200579 28.532365 41.207255 28.534492 40.59375 27.59375 L 42.125 23.3125 C 43.486012 19.482946 44.53542 16.28542 44.46875 16.21875 C 44.452082 16.202082 44.343395 16.203103 44.15625 16.21875 z "
     transform="scale(0.8,0.8)"
     id="path3179" />
  <path
     style="opacity:0.71681417;fill:#ffffff;fill-opacity:1;fill-rule:nonzero;stroke:#000000;stroke-width:0.36000001;stroke-miterlimit:4;stroke-opacity:1;stroke-dasharray:none;stroke-dashoffset:0"
     d="M 31.176695,67.964506 C 18.162106,65.293735 8.1295584,55.788305 5.4752453,43.61342 4.4994112,39.137434 4.869578,33.063081 6.3819864,28.733991 9.2388672,20.556515 15.176316,14.11318 23.360962,10.308364 41.146471,2.0403695 62.997609,10.528924 69.254139,28.136576 75.133173,44.68185 65.182299,62.347028 47.180337,67.322833 42.90179,68.505437 35.298258,68.810305 31.176695,67.964506 l 0,0 z m 15.259286,-5.818291 c 9.161099,-2.883102 16.142032,-9.916783 18.257787,-18.39574 0.73626,-2.950588 0.72954,-8.43037 -0.014,-11.410086 C 62.20622,22.427487 53.462603,14.776786 42.536381,12.964824 37.397482,12.112607 32.177278,12.591073 27.322751,14.359254 15.690301,18.596179 8.4721683,29.854983 10.14276,41.15651 c 1.535907,10.390403 9.53746,18.786103 20.475667,21.484272 4.207286,1.037828 11.691952,0.803806 15.817554,-0.494567 z"
     id="path3175-5"
     inkscape:connector-curvature="0" />
</svg>
