<?xml version="1.0" encoding="UTF-8" standalone="no"?>
<svg
   xmlns:dc="http://purl.org/dc/elements/1.1/"
   xmlns:cc="http://creativecommons.org/ns#"
   xmlns:rdf="http://www.w3.org/1999/02/22-rdf-syntax-ns#"
   xmlns:svg="http://www.w3.org/2000/svg"
   xmlns="http://www.w3.org/2000/svg"
   xmlns:sodipodi="http://sodipodi.sourceforge.net/DTD/sodipodi-0.dtd"
   xmlns:inkscape="http://www.inkscape.org/namespaces/inkscape"
   version="1.0"
   width="76.000000pt"
   height="76.000000pt"
   viewBox="0 0 76.000000 76.000000"
   preserveAspectRatio="xMidYMid meet"
   id="svg2997"
   inkscape:version="0.48.4 r9939"
   sodipodi:docname="nbr.svg">
  <defs
     id="defs3007" />
  <sodipodi:namedview
     pagecolor="#ffffff"
     bordercolor="#666666"
     borderopacity="1"
     objecttolerance="10"
     gridtolerance="10"
     guidetolerance="10"
     inkscape:pageopacity="0"
     inkscape:pageshadow="2"
     inkscape:window-width="1152"
     inkscape:window-height="802"
     id="namedview3005"
     showgrid="true"
     inkscape:zoom="2.5736842"
     inkscape:cx="42.353959"
     inkscape:cy="60.343719"
     inkscape:window-x="-8"
     inkscape:window-y="-8"
     inkscape:window-maximized="1"
     inkscape:current-layer="svg2997"
     showguides="true"
     inkscape:guide-bbox="true">
    <inkscape:grid
       type="xygrid"
       id="grid4350" />
  </sodipodi:namedview>
  <metadata
     id="metadata2999">
Created by potrace 1.10, written by Peter Selinger 2001-2011
<rdf:RDF>
  <cc:Work
     rdf:about="">
    <dc:format>image/svg+xml</dc:format>
    <dc:type
       rdf:resource="http://purl.org/dc/dcmitype/StillImage" />
    <dc:title></dc:title>
  </cc:Work>
</rdf:RDF>
</metadata>
  <text
     xml:space="preserve"
     style="font-size:56px;font-style:normal;font-weight:normal;line-height:125%;letter-spacing:0px;word-spacing:0px;fill:#000000;fill-opacity:1;stroke:none;font-family:Sans"
     x="47.985683"
     y="80.235176"
     id="text3039"
     sodipodi:linespacing="125%"
     transform="scale(0.8,0.8)"><tspan
       sodipodi:role="line"
       id="tspan3041" /></text>
  <text
     xml:space="preserve"
     style="font-size:56px;font-style:normal;font-weight:normal;line-height:125%;letter-spacing:0px;word-spacing:0px;fill:#000000;fill-opacity:1;stroke:none;font-family:Sans"
     x="28.558283"
     y="81.206543"
     id="text3051"
     sodipodi:linespacing="125%"
     transform="scale(0.8,0.8)"><tspan
       sodipodi:role="line"
       id="tspan3053" /></text>
  <path
     style="fill:#000000;fill-opacity:1"
     d=""
     id="path3227"
     inkscape:connector-curvature="0"
     transform="scale(0.8,0.8)" />
  <path
     style="fill:#000000;fill-opacity:1"
     d=""
     id="path3699"
     inkscape:connector-curvature="0"
     transform="scale(0.8,0.8)" />
  <path
     style="fill:#000000;fill-opacity:1"
     d=""
     id="path3701"
     inkscape:connector-curvature="0"
     transform="scale(0.8,0.8)" />
  <path
     style="opacity:0.71681417000000003;fill:#ff00cc;fill-opacity:1;fill-rule:nonzero;stroke:#000000;stroke-width:0.35999998000000000;stroke-miterlimit:4;stroke-opacity:1;stroke-dasharray:none;stroke-dashoffset:0"
     d="M 32.231856,64.525534 C 25.390885,63.870283 18.337459,61.535868 14.392085,58.62125 10.246574,55.558783 8.6382111,52.617111 8.6504631,48.11991 8.6658231,42.482248 11.243279,39.065353 17.938714,35.806615 l 2.766028,-1.346253 -2.622672,-1.329818 c -3.669795,-1.860758 -6.102484,-4.245389 -6.808499,-6.673998 -0.752547,-2.588671 -0.512033,-5.857444 0.564083,-7.666352 2.542402,-4.273673 7.642569,-7.314649 14.889272,-8.8777342 2.165212,-0.4670272 4.056381,-0.5554584 11.601231,-0.5424736 8.04715,0.013848 9.31645,0.086021 11.830325,0.6726718 7.592229,1.771761 12.961618,5.151536 14.805145,9.319137 0.902709,2.040726 0.877252,6.087719 -0.05035,8.003889 -0.893048,1.844788 -3.633182,4.30719 -6.27147,5.635811 -1.17128,0.589847 -2.129601,1.193343 -2.129601,1.341103 0,0.147759 0.734356,0.577981 1.631902,0.956049 4.625963,1.948568 8.142298,4.785607 9.437233,7.614115 0.666017,1.454774 0.768628,2.125557 0.768628,5.024564 0,3.105628 -0.06841,3.484617 -0.95354,5.282572 -1.904473,3.868537 -7.020604,7.643614 -12.749254,9.407392 -5.941487,1.829306 -15.066942,2.602097 -22.415319,1.898244 l 0,0 z M 43.923249,54.119648 c 6.278617,-2.091706 8.061207,-8.330495 3.369222,-11.791741 -2.322336,-1.713173 -4.924352,-2.428324 -8.808895,-2.421079 -5.232633,0.0098 -8.683177,1.486755 -10.512932,4.500032 -2.359197,3.885173 0.485308,8.327645 6.438609,10.055646 1.895326,0.550134 7.432491,0.350592 9.513996,-0.342858 z m 0.725364,-25.855874 c 4.030091,-2.061065 4.245273,-5.886724 0.447374,-7.9538 -4.067769,-2.213956 -11.904777,-1.770484 -14.88512,0.842303 -1.738179,1.523815 -1.833949,3.855588 -0.236338,5.754241 1.80261,2.14228 4.350122,2.785615 9.705098,2.450874 2.695165,-0.168475 3.511188,-0.348073 4.968986,-1.093618 l 0,0 z"
     id="path2998"
     inkscape:connector-curvature="0" />
</svg>
