<?xml version="1.0" encoding="UTF-8" standalone="no"?>
<svg
   xmlns:dc="http://purl.org/dc/elements/1.1/"
   xmlns:cc="http://creativecommons.org/ns#"
   xmlns:rdf="http://www.w3.org/1999/02/22-rdf-syntax-ns#"
   xmlns:svg="http://www.w3.org/2000/svg"
   xmlns="http://www.w3.org/2000/svg"
   xmlns:sodipodi="http://sodipodi.sourceforge.net/DTD/sodipodi-0.dtd"
   xmlns:inkscape="http://www.inkscape.org/namespaces/inkscape"
   version="1.0"
   width="76.000000pt"
   height="76.000000pt"
   viewBox="0 0 76.000000 76.000000"
   preserveAspectRatio="xMidYMid meet"
   id="svg2997"
   inkscape:version="0.48.4 r9939"
   sodipodi:docname="pigpaper.svg">
  <defs
     id="defs3007" />
  <sodipodi:namedview
     pagecolor="#ffffff"
     bordercolor="#666666"
     borderopacity="1"
     objecttolerance="10"
     gridtolerance="10"
     guidetolerance="10"
     inkscape:pageopacity="0"
     inkscape:pageshadow="2"
     inkscape:window-width="1152"
     inkscape:window-height="802"
     id="namedview3005"
     showgrid="true"
     inkscape:zoom="2.5736842"
     inkscape:cx="42.353959"
     inkscape:cy="60.343719"
     inkscape:window-x="-8"
     inkscape:window-y="-8"
     inkscape:window-maximized="1"
     inkscape:current-layer="svg2997"
     showguides="true"
     inkscape:guide-bbox="true">
    <inkscape:grid
       type="xygrid"
       id="grid4350" />
  </sodipodi:namedview>
  <metadata
     id="metadata2999">
Created by potrace 1.10, written by Peter Selinger 2001-2011
<rdf:RDF>
  <cc:Work
     rdf:about="">
    <dc:format>image/svg+xml</dc:format>
    <dc:type
       rdf:resource="http://purl.org/dc/dcmitype/StillImage" />
    <dc:title></dc:title>
  </cc:Work>
</rdf:RDF>
</metadata>
  <text
     xml:space="preserve"
     style="font-size:56px;font-style:normal;font-weight:normal;line-height:125%;letter-spacing:0px;word-spacing:0px;fill:#000000;fill-opacity:1;stroke:none;font-family:Sans"
     x="47.985683"
     y="80.235176"
     id="text3039"
     sodipodi:linespacing="125%"
     transform="scale(0.8,0.8)"><tspan
       sodipodi:role="line"
       id="tspan3041" /></text>
  <text
     xml:space="preserve"
     style="font-size:56px;font-style:normal;font-weight:normal;line-height:125%;letter-spacing:0px;word-spacing:0px;fill:#000000;fill-opacity:1;stroke:none;font-family:Sans"
     x="28.558283"
     y="81.206543"
     id="text3051"
     sodipodi:linespacing="125%"
     transform="scale(0.8,0.8)"><tspan
       sodipodi:role="line"
       id="tspan3053" /></text>
  <path
     style="fill:#000000;fill-opacity:1"
     d=""
     id="path3227"
     inkscape:connector-curvature="0"
     transform="scale(0.8,0.8)" />
  <path
     style="fill:#000000;fill-opacity:1"
     d=""
     id="path3699"
     inkscape:connector-curvature="0"
     transform="scale(0.8,0.8)" />
  <path
     style="fill:#000000;fill-opacity:1"
     d=""
     id="path3701"
     inkscape:connector-curvature="0"
     transform="scale(0.8,0.8)" />
  <path
     style="opacity:0.71681417000000003;fill:#0055d4;fill-opacity:1;fill-rule:nonzero;stroke:#000000;stroke-width:0.35999998000000000;stroke-miterlimit:4;stroke-opacity:1;stroke-dasharray:none;stroke-dashoffset:0"
     d="M 42.905336,67.805267 C 40.381183,67.109615 39.977518,67.07216 38.179109,67.366734 35.554398,67.796655 33.564595,67.772925 32.234863,67.295844 31.632446,67.079713 30.373634,66.662262 29.437503,66.36818 27.016242,65.607548 24.556838,63.792611 22.956944,61.585799 22.211057,60.556962 20.527955,58.345172 19.216717,56.670708 15.848387,52.369325 14.09635,49.66639 12.329652,46.045778 11.484883,44.314537 10.2898,42.072004 9.6739144,41.062367 8.7748412,39.588498 8.52453,38.858768 8.4040026,37.36018 c -0.186182,-2.314958 0.2202541,-2.881396 2.2693094,-3.162669 3.016954,-0.414132 5.744455,1.243069 7.297885,4.434114 0.521258,1.070763 1.605689,2.716575 2.409845,3.657363 3.436222,4.020054 3.779694,4.212377 4.883978,2.734733 0.760392,-1.017485 1.272658,-6.075134 0.780576,-7.706716 -0.180443,-0.59829 -0.438324,-3.110198 -0.573071,-5.582025 -0.134747,-2.471826 -0.465044,-6.059962 -0.733992,-7.973634 -0.62254,-4.429586 -0.474321,-10.748791 0.279029,-11.896324 1.13071,-1.722337 3.477867,-2.3546951 5.128314,-1.381641 1.601989,0.944486 2.283507,3.360886 2.293891,8.133257 0.0039,1.795117 0.190888,4.535148 0.415514,6.088955 0.224626,1.55381 0.496325,3.934168 0.603774,5.289686 0.260552,3.286979 1.467563,6.059401 2.050575,4.710026 0.476212,-1.102191 0.659336,-7.377602 0.361731,-12.396083 -0.268704,-4.531118 -0.245054,-5.599659 0.178867,-8.081819 0.569196,-3.33278 1.283005,-4.9083805 2.581761,-5.6987378 1.470249,-0.8947219 3.750465,-0.6019922 4.487632,0.5761135 0.642072,1.0261333 1.236459,9.6278303 1.132998,16.3962703 -0.102924,6.733282 -0.01792,8.062946 0.504345,7.889194 0.796403,-0.264954 1.363307,-1.981114 1.659436,-5.023552 0.168928,-1.735576 0.6801,-4.786562 1.135938,-6.779971 0.455838,-1.993408 0.982785,-4.602963 1.170997,-5.799007 0.462383,-2.938366 1.169422,-4.482171 2.326198,-5.079205 1.156683,-0.596986 2.576271,-0.380494 3.389618,0.516927 1.087073,1.199445 1.233826,2.24508 0.947633,6.751955 -0.550685,8.671978 -0.891377,11.762677 -1.610254,14.607898 -0.846257,3.349363 -0.85426,5.093674 -0.02339,5.093674 0.351475,0 0.825306,-0.546288 1.383217,-1.594728 1.218377,-2.289611 4.851432,-10.2524 5.064774,-11.100775 0.09922,-0.394559 0.628252,-1.150615 1.175627,-1.680124 1.38841,-1.343095 2.762915,-1.339433 3.97149,0.01058 0.820077,0.916047 0.860793,1.074177 0.691874,2.687169 -0.342532,3.270808 -1.359784,6.069026 -4.443221,12.222213 -2.066408,4.123643 -1.908421,3.335861 -2.711029,13.518254 -0.426811,5.414799 -2.566776,11.273238 -5.007802,13.709538 -2.910423,2.904786 -6.320344,3.636377 -10.97275,2.354179 l 1.3e-5,0 z"
     id="path3154"
     inkscape:connector-curvature="0" />
</svg>
